<?xml version="1.0" encoding="utf-8"?>
<!-- Generator: Adobe Illustrator 16.0.0, SVG Export Plug-In . SVG Version: 6.00 Build 0)  -->
<!DOCTYPE svg PUBLIC "-//W3C//DTD SVG 1.1//EN" "http://www.w3.org/Graphics/SVG/1.1/DTD/svg11.dtd">
<svg version="1.1" id="Layer_1" xmlns="http://www.w3.org/2000/svg" xmlns:xlink="http://www.w3.org/1999/xlink" x="0px" y="0px"
	 width="44px" height="44px" viewBox="128 128 44 44" enable-background="new 128 128 44 44" xml:space="preserve">
<g id="bag_large">
	<rect id="boundingbox" x="141.5" y="128" display="none" stroke="#FFFFFF" stroke-miterlimit="10" width="17" height="44"/>
	<path id="bag" stroke="#FFFFFF" stroke-miterlimit="10" d="M155.999,142h-1.788c-0.196-2.326-2.241-4.053-4.567-3.856
		c-2.053,0.173-3.683,1.803-3.856,3.856H144c-1.381,0-2.5,1.119-2.5,2.5v11c0,1.381,1.119,2.5,2.5,2.5h11.999
		c1.381,0,2.501-1.119,2.501-2.5v-11C158.5,143.119,157.38,142,155.999,142z M149.999,139.125c1.645,0.005,3.024,1.241,3.213,2.875
		h-6.425C146.974,140.366,148.354,139.13,149.999,139.125z M157.499,155.5c0,0.828-0.671,1.5-1.5,1.5l0,0H144
		c-0.829,0-1.501-0.672-1.501-1.5l0,0v-11c0-0.829,0.672-1.5,1.501-1.5h11.999c0.829,0,1.5,0.671,1.5,1.5V155.5z"/>
</g>
</svg>
