<?xml version="1.0" encoding="utf-8"?>
<!-- Generator: Adobe Illustrator 16.0.0, SVG Export Plug-In . SVG Version: 6.00 Build 0)  -->
<!DOCTYPE svg PUBLIC "-//W3C//DTD SVG 1.1//EN" "http://www.w3.org/Graphics/SVG/1.1/DTD/svg11.dtd">
<svg version="1.1" id="Layer_1" xmlns="http://www.w3.org/2000/svg" xmlns:xlink="http://www.w3.org/1999/xlink" x="0px" y="0px"
	 width="44px" height="44px" viewBox="128 128 44 44" enable-background="new 128 128 44 44" xml:space="preserve">
<g id="bag_large">
	<rect id="boundingbox" x="141.5" y="128" display="none" stroke="#FFFFFF" stroke-miterlimit="10" width="17" height="44"/>
	<path id="bag" display="none" stroke="#FFFFFF" stroke-miterlimit="10" d="M155.999,142h-1.788
		c-0.196-2.326-2.241-4.053-4.567-3.856c-2.053,0.173-3.683,1.803-3.856,3.856H144c-1.381,0-2.5,1.119-2.5,2.5v11
		c0,1.381,1.119,2.5,2.5,2.5h11.999c1.381,0,2.501-1.119,2.501-2.5v-11C158.5,143.119,157.38,142,155.999,142z M149.999,139.125
		c1.645,0.005,3.024,1.241,3.213,2.875h-6.425C146.974,140.366,148.354,139.13,149.999,139.125z M157.499,155.5
		c0,0.828-0.671,1.5-1.5,1.5l0,0H144c-0.829,0-1.501-0.672-1.501-1.5l0,0v-11c0-0.829,0.672-1.5,1.501-1.5h11.999
		c0.829,0,1.5,0.671,1.5,1.5V155.5z"/>
</g>
<path fill="#FFFFFF" stroke="#FFFFFF" stroke-miterlimit="10" d="M158.816,158.01l-4.949-4.952c2.622-3.07,2.26-7.684-0.811-10.306
	c-3.07-2.622-7.684-2.259-10.306,0.811c-2.622,3.07-2.259,7.684,0.811,10.306c2.737,2.338,6.769,2.336,9.502-0.006l4.948,4.952
	c0.212,0.232,0.572,0.248,0.804,0.037c0.232-0.212,0.249-0.571,0.038-0.804C158.841,158.034,158.829,158.022,158.816,158.01
	L158.816,158.01z M142.182,148.326c0.005-3.396,2.762-6.146,6.157-6.141c3.396,0.005,6.146,2.762,6.142,6.158
	c-0.005,3.394-2.757,6.142-6.149,6.142C144.935,154.478,142.183,151.724,142.182,148.326z"/>
</svg>
